# xmcd
#
# Track frame offsets: 
#        151
#        13718
#        26846
#        40717
#        53914
#        67112
#        81660
#        98531
#        112483
#        124405
#        143152
#        156128
#        170224
#        184019
#        194598
#        213347
#        230069
#        239666
#
# Disc length: 3379 seconds
#
# Revision: 0
# Processed by: cddbd v1.5.2PL0 Copyright (c) Steve Scherf et al.
# Submitted via: ExactAudioCopy v0.99pb3
#
DISCID=170d3112
DTITLE=Don Williams - Special Edition
DYEAR=1900
DGENRE=Country
TTITLE0=I'll Be Faithful To You
TTITLE1=Reason To Be
TTITLE2=I'm Just A Country Boy
TTITLE3=Rake And Ramblin' Man
TTITLE4=Lay Down Beside Me
TTITLE5=Listen To The Radio
TTITLE6=Oh Misery
TTITLE7=Walkin' A Broken Heart
TTITLE8=I've Got A Winner In You
TTITLE9=Maggie's Dream
TTITLE10=You Love Me Through It All
TTITLE11=Stay Young
TTITLE12=Miracles
TTITLE13=In The Mornin'
TTITLE14=I Believe In You
TTITLE15=Love Is On A Roll
TTITLE16=My Rifle My Pony And Me
TTITLE17=Peace Train
EXTD=
EXTT0=
EXTT1=
EXTT2=
EXTT3=
EXTT4=
EXTT5=
EXTT6=
EXTT7=
EXTT8=
EXTT9=
EXTT10=
EXTT11=
EXTT12=
EXTT13=
EXTT14=
EXTT15=
EXTT16=
EXTT17=
PLAYORDER=
